<svg version="1.1" xmlns="http://www.w3.org/2000/svg" width="124" height="124" viewBox="0 0 124 124">
<title>stop</title>
<path fill="#e53e3e" d="M83.553 7.75h-44.76l-32.011 31.926v44.644l32.011 31.93 44.76-0.283 31.728-31.647v-44.644l-31.729-31.926zM111.406 82.727l-29.465 29.384-41.559 0.264-29.725-29.648v-41.459l29.725-29.644h41.563l29.466 29.644v41.459zM93.74 61.911c0.744-0.198 1.368-0.546 1.86-1.046 0.442-0.45 0.767-0.938 0.969-1.469 0.205-0.535 0.306-1.151 0.306-1.86 0-0.771-0.132-1.441-0.403-2.015-0.267-0.566-0.674-1.035-1.217-1.395-0.477-0.31-1.027-0.531-1.659-0.659s-1.414-0.198-2.352-0.198h-2.484v8.932h2.042c1.213 0 2.193-0.097 2.937-0.291zM77.512 55.122c-0.593-0.779-1.314-1.364-2.158-1.752s-1.79-0.581-2.84-0.581c-1.089 0-2.042 0.19-2.856 0.566-0.814 0.384-1.535 0.969-2.162 1.767-0.593 0.767-1.050 1.732-1.372 2.891-0.318 1.163-0.477 2.476-0.477 3.941 0 2.961 0.62 5.227 1.86 6.797 1.244 1.569 2.91 2.352 5.003 2.352 2.089 0 3.755-0.783 4.991-2.352s1.856-3.836 1.856-6.797c0-1.496-0.163-2.817-0.484-3.968-0.322-1.155-0.775-2.108-1.36-2.864zM41.176 13.563l-28.582 28.505v39.858l28.582 28.508 39.963-0.252 28.33-28.257v-39.858l-28.33-28.505h-39.963zM40.695 69.421c-0.36 0.856-0.864 1.581-1.507 2.178-0.729 0.655-1.55 1.162-2.464 1.515-0.915 0.356-2.058 0.531-3.433 0.531-1.639 0-3.026-0.171-4.173-0.508s-2.224-0.752-3.232-1.248v-3.755h0.213c0.992 0.922 2.112 1.639 3.364 2.147s2.461 0.76 3.623 0.76c1.659 0 2.91-0.345 3.759-1.035 0.852-0.694 1.275-1.6 1.275-2.732 0-0.891-0.225-1.628-0.67-2.189s-1.155-0.98-2.127-1.252c-0.701-0.205-1.337-0.372-1.91-0.5-0.577-0.132-1.302-0.31-2.17-0.535-0.779-0.201-1.48-0.457-2.092-0.771-0.616-0.31-1.166-0.721-1.639-1.224-0.465-0.496-0.829-1.077-1.085-1.748-0.256-0.674-0.387-1.445-0.387-2.329 0-1.829 0.713-3.356 2.139-4.596s3.247-1.856 5.46-1.856c1.263 0 2.461 0.128 3.588 0.38s2.174 0.608 3.135 1.069v3.577h-0.229c-0.721-0.647-1.639-1.209-2.763-1.697s-2.306-0.729-3.538-0.729c-1.395 0-2.523 0.325-3.383 0.977s-1.29 1.504-1.29 2.561c0 0.957 0.252 1.717 0.759 2.282s1.24 0.98 2.201 1.24c0.636 0.17 1.414 0.368 2.337 0.581s1.686 0.415 2.294 0.597c1.554 0.477 2.693 1.194 3.41 2.155 0.721 0.957 1.077 2.139 1.077 3.542 0 0.883-0.178 1.752-0.539 2.612zM61.562 53.816h-7.328v19.406h-3.724v-19.406h-7.083v-3.391h18.135v3.391zM85.765 50.666h5.661c1.333 0 2.468 0.112 3.406 0.333 0.938 0.225 1.767 0.581 2.484 1.073 0.837 0.573 1.496 1.306 1.969 2.185 0.473 0.887 0.713 1.953 0.713 3.201 0 0.98-0.174 1.907-0.523 2.778-0.349 0.876-0.829 1.62-1.445 2.232-0.775 0.767-1.693 1.348-2.74 1.74-1.050 0.395-2.375 0.589-3.98 0.589h-2.542v8.416h-2.995v-22.549zM82.479 61.95c0 1.833-0.233 3.484-0.698 4.96s-1.135 2.713-2.019 3.716c-0.918 1.050-1.992 1.829-3.216 2.329-1.228 0.5-2.577 0.748-4.053 0.748-1.527 0-2.899-0.256-4.119-0.771s-2.271-1.283-3.15-2.306c-0.868-1.004-1.535-2.236-2-3.701-0.465-1.469-0.697-3.127-0.697-4.976 0-1.899 0.236-3.569 0.705-5.003 0.469-1.438 1.139-2.67 2.007-3.701 0.872-1.004 1.918-1.763 3.147-2.282 1.224-0.523 2.6-0.783 4.115-0.783 1.535 0 2.918 0.267 4.15 0.806 1.228 0.535 2.271 1.287 3.119 2.259 0.86 0.992 1.527 2.216 2.003 3.685 0.469 1.465 0.705 3.139 0.705 5.018z"></path>
</svg>
